<svg xmlns="http://www.w3.org/2000/svg" version="1.1" xmlns:xlink="http://www.w3.org/1999/xlink" xmlns:svgjs="http://svgjs.dev/svgjs" width="128" height="128" viewBox="0 0 128 128"><g transform="matrix(0.8046875,0,0,0.8046875,12.406091786265648,11.960139391447363)"><svg viewBox="0 0 93 95" data-background-color="#ffffff" preserveAspectRatio="xMidYMid meet" height="130" width="128" xmlns="http://www.w3.org/2000/svg" xmlns:xlink="http://www.w3.org/1999/xlink"><g id="tight-bounds" transform="matrix(1,0,0,1,0.0847909114300478,-0.24049999999999727)"><svg viewBox="0 0 92.83041817713989 95.481" height="95.481" width="92.83041817713989"><g><svg viewBox="0 0 92.83041817713989 95.481" height="95.481" width="92.83041817713989"><g><svg viewBox="0 0 92.83041817713989 95.481" height="95.481" width="92.83041817713989"><g><svg viewBox="0 0 92.83041817713989 95.481" height="95.481" width="92.83041817713989"><g><svg viewBox="0 0 92.83041817713989 95.481" height="95.481" width="92.83041817713989"><g><svg viewBox="0 0 92.83041817713989 95.481" height="95.481" width="92.83041817713989"><g><svg xmlns="http://www.w3.org/2000/svg" xmlns:xlink="http://www.w3.org/1999/xlink" version="1.1" x="0" y="0" viewBox="15.985999999999999 16 68.014 69.956" enable-background="new 0 0 100 100" xml:space="preserve" height="95.481" width="92.83041817713989" class="icon-icon-0" data-fill-palette-color="accent" id="icon-0"><path d="M40.987 25.852v5.295h-9.853V41h-5.298v-9.853h-9.85v-5.295h9.85V16h5.298v9.852H40.987z" fill="#fec200" data-fill-palette-color="accent"></path><path d="M62.5 25.512h18v6.68h-18V25.512z" fill="#fec200" data-fill-palette-color="accent"></path><path d="M24.497 72.167l-8.404-8.457 4.018-4.018 8.402 8.457 8.459-8.457 4.016 4.018-8.509 8.457 8.509 8.457-4.016 4.018-8.459-8.51-8.508 8.51-4.018-4.018L24.497 72.167z" fill="#fec200" data-fill-palette-color="accent"></path><path d="M84 68.877v5.295H59v-5.295H84zM68.579 58.258c0.842-0.808 1.823-1.213 2.945-1.213 0.562 0 1.09 0.107 1.585 0.322 0.495 0.216 0.933 0.512 1.311 0.891 0.379 0.381 0.685 0.826 0.917 1.337 0.23 0.512 0.347 1.063 0.347 1.658 0 0.528-0.117 1.04-0.347 1.535-0.231 0.496-0.53 0.94-0.892 1.335-0.363 0.397-0.792 0.711-1.287 0.94-0.494 0.232-1.023 0.347-1.583 0.347-0.594 0-1.148-0.107-1.658-0.32-0.514-0.215-0.959-0.512-1.337-0.892-0.379-0.379-0.685-0.824-0.917-1.336-0.23-0.511-0.347-1.047-0.347-1.609C67.315 60.064 67.736 59.067 68.579 58.258zM67.662 80.164c0.231-0.496 0.538-0.933 0.917-1.311 0.378-0.379 0.824-0.677 1.337-0.893 0.51-0.213 1.047-0.32 1.607-0.32 0.562 0 1.09 0.107 1.585 0.32 0.495 0.216 0.933 0.514 1.311 0.893 0.379 0.378 0.685 0.815 0.917 1.311 0.23 0.496 0.347 1.04 0.347 1.634 0 0.496-0.117 0.991-0.347 1.484-0.231 0.496-0.53 0.941-0.892 1.338-0.363 0.396-0.792 0.717-1.287 0.965-0.494 0.248-1.023 0.371-1.583 0.371-0.594 0-1.148-0.115-1.658-0.347-0.514-0.229-0.959-0.536-1.337-0.915-0.379-0.38-0.685-0.826-0.917-1.337-0.23-0.512-0.347-1.031-0.347-1.559C67.315 81.203 67.432 80.659 67.662 80.164z" fill="#fec200" data-fill-palette-color="accent"></path></svg></g></svg></g></svg></g></svg></g></svg></g></svg></g><defs></defs></svg><rect width="92.83041817713989" height="95.481" fill="none" stroke="none" visibility="hidden"></rect></g></svg></g></svg>